<mxfile host="Electron" modified="2024-06-19T07:07:53.740Z" agent="Mozilla/5.0 (Macintosh; Intel Mac OS X 10_15_7) AppleWebKit/537.36 (KHTML, like Gecko) draw.io/24.5.3 Chrome/124.0.6367.207 Electron/30.0.6 Safari/537.36" etag="trkAx04MjN2Hoxpj94xi" version="24.5.3" type="device">
  <diagram id="C5RBs43oDa-KdzZeNtuy" name="Page-1">
    <mxGraphModel dx="791" dy="561" grid="1" gridSize="10" guides="1" tooltips="1" connect="1" arrows="1" fold="1" page="1" pageScale="1" pageWidth="827" pageHeight="1169" math="0" shadow="0">
      <root>
        <mxCell id="WIyWlLk6GJQsqaUBKTNV-0" />
        <mxCell id="WIyWlLk6GJQsqaUBKTNV-1" parent="WIyWlLk6GJQsqaUBKTNV-0" />
        <mxCell id="9MOlDyLgkSEw8JPwN7AX-101" style="edgeStyle=orthogonalEdgeStyle;rounded=0;orthogonalLoop=1;jettySize=auto;html=1;exitX=0.5;exitY=1;exitDx=0;exitDy=0;entryX=0.5;entryY=0;entryDx=0;entryDy=0;" edge="1" parent="WIyWlLk6GJQsqaUBKTNV-1" source="WIyWlLk6GJQsqaUBKTNV-3" target="9MOlDyLgkSEw8JPwN7AX-22">
          <mxGeometry relative="1" as="geometry" />
        </mxCell>
        <mxCell id="WIyWlLk6GJQsqaUBKTNV-3" value="Kernel inits&lt;div&gt;Intr_timer_handler&lt;/div&gt;" style="rounded=1;whiteSpace=wrap;html=1;fontSize=12;glass=0;strokeWidth=1;shadow=0;" parent="WIyWlLk6GJQsqaUBKTNV-1" vertex="1">
          <mxGeometry x="240" y="40" width="120" height="40" as="geometry" />
        </mxCell>
        <mxCell id="9MOlDyLgkSEw8JPwN7AX-19" style="edgeStyle=orthogonalEdgeStyle;rounded=0;orthogonalLoop=1;jettySize=auto;html=1;exitX=0.5;exitY=1;exitDx=0;exitDy=0;entryX=0.5;entryY=0;entryDx=0;entryDy=0;" edge="1" parent="WIyWlLk6GJQsqaUBKTNV-1" source="9MOlDyLgkSEw8JPwN7AX-4" target="9MOlDyLgkSEw8JPwN7AX-10">
          <mxGeometry relative="1" as="geometry" />
        </mxCell>
        <mxCell id="9MOlDyLgkSEw8JPwN7AX-4" value="Get page(s) from memory pool&lt;div&gt;memory.c:&amp;nbsp;get_kernel_pages(page_count)&lt;/div&gt;" style="rounded=1;whiteSpace=wrap;html=1;fontSize=12;glass=0;strokeWidth=1;shadow=0;" vertex="1" parent="WIyWlLk6GJQsqaUBKTNV-1">
          <mxGeometry x="160" y="160" width="280" height="40" as="geometry" />
        </mxCell>
        <mxCell id="9MOlDyLgkSEw8JPwN7AX-20" style="edgeStyle=orthogonalEdgeStyle;rounded=0;orthogonalLoop=1;jettySize=auto;html=1;exitX=0.5;exitY=1;exitDx=0;exitDy=0;entryX=0.5;entryY=0;entryDx=0;entryDy=0;" edge="1" parent="WIyWlLk6GJQsqaUBKTNV-1" source="9MOlDyLgkSEw8JPwN7AX-10" target="9MOlDyLgkSEw8JPwN7AX-13">
          <mxGeometry relative="1" as="geometry" />
        </mxCell>
        <mxCell id="9MOlDyLgkSEw8JPwN7AX-53" style="edgeStyle=orthogonalEdgeStyle;rounded=0;orthogonalLoop=1;jettySize=auto;html=1;exitX=1;exitY=0.5;exitDx=0;exitDy=0;entryX=0;entryY=0.5;entryDx=0;entryDy=0;" edge="1" parent="WIyWlLk6GJQsqaUBKTNV-1" source="9MOlDyLgkSEw8JPwN7AX-10" target="9MOlDyLgkSEw8JPwN7AX-31">
          <mxGeometry relative="1" as="geometry">
            <mxPoint x="540" y="140" as="targetPoint" />
            <Array as="points">
              <mxPoint x="540" y="260" />
              <mxPoint x="540" y="95" />
            </Array>
          </mxGeometry>
        </mxCell>
        <mxCell id="9MOlDyLgkSEw8JPwN7AX-10" value="Init thread lists: all_list &amp;amp; ready_list&lt;div&gt;list.c: list_init(*list)&lt;/div&gt;" style="rounded=1;whiteSpace=wrap;html=1;fontSize=12;glass=0;strokeWidth=1;shadow=0;" vertex="1" parent="WIyWlLk6GJQsqaUBKTNV-1">
          <mxGeometry x="160" y="240" width="280" height="40" as="geometry" />
        </mxCell>
        <mxCell id="9MOlDyLgkSEw8JPwN7AX-21" style="edgeStyle=orthogonalEdgeStyle;rounded=0;orthogonalLoop=1;jettySize=auto;html=1;exitX=0.5;exitY=1;exitDx=0;exitDy=0;entryX=0.5;entryY=0;entryDx=0;entryDy=0;" edge="1" parent="WIyWlLk6GJQsqaUBKTNV-1" source="9MOlDyLgkSEw8JPwN7AX-13" target="9MOlDyLgkSEw8JPwN7AX-16">
          <mxGeometry relative="1" as="geometry" />
        </mxCell>
        <mxCell id="9MOlDyLgkSEw8JPwN7AX-13" value="Set current running thread as main thread" style="rounded=1;whiteSpace=wrap;html=1;fontSize=12;glass=0;strokeWidth=1;shadow=0;" vertex="1" parent="WIyWlLk6GJQsqaUBKTNV-1">
          <mxGeometry x="160" y="320" width="280" height="40" as="geometry" />
        </mxCell>
        <mxCell id="9MOlDyLgkSEw8JPwN7AX-16" value="Create a new thread&lt;div&gt;*pthread: points to the newly create thread&lt;/div&gt;&lt;div&gt;1. Get spaces from kernel stack and create their own stack&lt;/div&gt;&lt;div&gt;2. Fill init data into their stack&lt;/div&gt;&lt;div&gt;3. If they are not in the ready_list / all_list, insert them into lists.&lt;/div&gt;" style="rounded=1;whiteSpace=wrap;html=1;fontSize=12;glass=0;strokeWidth=1;shadow=0;" vertex="1" parent="WIyWlLk6GJQsqaUBKTNV-1">
          <mxGeometry x="120" y="400" width="360" height="80" as="geometry" />
        </mxCell>
        <mxCell id="9MOlDyLgkSEw8JPwN7AX-27" style="edgeStyle=orthogonalEdgeStyle;rounded=0;orthogonalLoop=1;jettySize=auto;html=1;exitX=0.5;exitY=1;exitDx=0;exitDy=0;entryX=0.5;entryY=0;entryDx=0;entryDy=0;" edge="1" parent="WIyWlLk6GJQsqaUBKTNV-1" source="9MOlDyLgkSEw8JPwN7AX-22" target="9MOlDyLgkSEw8JPwN7AX-24">
          <mxGeometry relative="1" as="geometry">
            <Array as="points">
              <mxPoint x="300" y="560" />
              <mxPoint x="140" y="560" />
            </Array>
          </mxGeometry>
        </mxCell>
        <mxCell id="9MOlDyLgkSEw8JPwN7AX-28" style="edgeStyle=orthogonalEdgeStyle;rounded=0;orthogonalLoop=1;jettySize=auto;html=1;exitX=0.5;exitY=1;exitDx=0;exitDy=0;entryX=0.5;entryY=0;entryDx=0;entryDy=0;" edge="1" parent="WIyWlLk6GJQsqaUBKTNV-1" source="9MOlDyLgkSEw8JPwN7AX-22" target="9MOlDyLgkSEw8JPwN7AX-25">
          <mxGeometry relative="1" as="geometry">
            <Array as="points">
              <mxPoint x="300" y="520" />
            </Array>
          </mxGeometry>
        </mxCell>
        <mxCell id="9MOlDyLgkSEw8JPwN7AX-29" style="edgeStyle=orthogonalEdgeStyle;rounded=0;orthogonalLoop=1;jettySize=auto;html=1;exitX=0.5;exitY=1;exitDx=0;exitDy=0;" edge="1" parent="WIyWlLk6GJQsqaUBKTNV-1" source="9MOlDyLgkSEw8JPwN7AX-22" target="9MOlDyLgkSEw8JPwN7AX-26">
          <mxGeometry relative="1" as="geometry">
            <Array as="points">
              <mxPoint x="300" y="560" />
              <mxPoint x="460" y="560" />
            </Array>
          </mxGeometry>
        </mxCell>
        <mxCell id="9MOlDyLgkSEw8JPwN7AX-22" value="" style="swimlane;startSize=0;" vertex="1" parent="WIyWlLk6GJQsqaUBKTNV-1">
          <mxGeometry x="80" y="120" width="440" height="400" as="geometry">
            <mxRectangle x="40" y="120" width="50" height="40" as="alternateBounds" />
          </mxGeometry>
        </mxCell>
        <mxCell id="9MOlDyLgkSEw8JPwN7AX-15" value="These processes are set to run twice to create both Thread A and Thread B" style="text;html=1;align=center;verticalAlign=middle;whiteSpace=wrap;rounded=0;" vertex="1" parent="9MOlDyLgkSEw8JPwN7AX-22">
          <mxGeometry y="10" width="440" height="30" as="geometry" />
        </mxCell>
        <mxCell id="9MOlDyLgkSEw8JPwN7AX-54" value="Main Thread is already running.&amp;nbsp;&lt;span style=&quot;background-color: initial;&quot;&gt;Only insert it into all_list but not ready_list.&lt;/span&gt;" style="text;html=1;align=center;verticalAlign=middle;whiteSpace=wrap;rounded=0;" vertex="1" parent="9MOlDyLgkSEw8JPwN7AX-22">
          <mxGeometry y="360" width="440" height="30" as="geometry" />
        </mxCell>
        <mxCell id="9MOlDyLgkSEw8JPwN7AX-107" style="edgeStyle=orthogonalEdgeStyle;rounded=0;orthogonalLoop=1;jettySize=auto;html=1;exitX=0.5;exitY=1;exitDx=0;exitDy=0;" edge="1" parent="WIyWlLk6GJQsqaUBKTNV-1" source="9MOlDyLgkSEw8JPwN7AX-24" target="9MOlDyLgkSEw8JPwN7AX-103">
          <mxGeometry relative="1" as="geometry" />
        </mxCell>
        <mxCell id="9MOlDyLgkSEw8JPwN7AX-24" value="Main Thread" style="rounded=1;whiteSpace=wrap;html=1;" vertex="1" parent="WIyWlLk6GJQsqaUBKTNV-1">
          <mxGeometry x="80" y="580" width="120" height="20" as="geometry" />
        </mxCell>
        <mxCell id="9MOlDyLgkSEw8JPwN7AX-108" style="edgeStyle=orthogonalEdgeStyle;rounded=0;orthogonalLoop=1;jettySize=auto;html=1;exitX=0.5;exitY=1;exitDx=0;exitDy=0;" edge="1" parent="WIyWlLk6GJQsqaUBKTNV-1" source="9MOlDyLgkSEw8JPwN7AX-25">
          <mxGeometry relative="1" as="geometry">
            <mxPoint x="299.7142857142858" y="640" as="targetPoint" />
          </mxGeometry>
        </mxCell>
        <mxCell id="9MOlDyLgkSEw8JPwN7AX-25" value="Thread A" style="rounded=1;whiteSpace=wrap;html=1;" vertex="1" parent="WIyWlLk6GJQsqaUBKTNV-1">
          <mxGeometry x="240" y="580" width="120" height="20" as="geometry" />
        </mxCell>
        <mxCell id="9MOlDyLgkSEw8JPwN7AX-109" style="edgeStyle=orthogonalEdgeStyle;rounded=0;orthogonalLoop=1;jettySize=auto;html=1;exitX=0.5;exitY=1;exitDx=0;exitDy=0;" edge="1" parent="WIyWlLk6GJQsqaUBKTNV-1" source="9MOlDyLgkSEw8JPwN7AX-26" target="9MOlDyLgkSEw8JPwN7AX-103">
          <mxGeometry relative="1" as="geometry" />
        </mxCell>
        <mxCell id="9MOlDyLgkSEw8JPwN7AX-26" value="Thread B" style="rounded=1;whiteSpace=wrap;html=1;" vertex="1" parent="WIyWlLk6GJQsqaUBKTNV-1">
          <mxGeometry x="400" y="580" width="120" height="20" as="geometry" />
        </mxCell>
        <mxCell id="9MOlDyLgkSEw8JPwN7AX-45" style="edgeStyle=orthogonalEdgeStyle;rounded=0;orthogonalLoop=1;jettySize=auto;html=1;exitX=0.5;exitY=0;exitDx=0;exitDy=0;entryX=0.5;entryY=1;entryDx=0;entryDy=0;startArrow=classic;startFill=1;" edge="1" parent="WIyWlLk6GJQsqaUBKTNV-1" source="9MOlDyLgkSEw8JPwN7AX-30">
          <mxGeometry relative="1" as="geometry">
            <mxPoint x="580" y="160" as="targetPoint" />
          </mxGeometry>
        </mxCell>
        <mxCell id="9MOlDyLgkSEw8JPwN7AX-49" style="edgeStyle=orthogonalEdgeStyle;rounded=0;orthogonalLoop=1;jettySize=auto;html=1;exitX=0.5;exitY=1;exitDx=0;exitDy=0;" edge="1" parent="WIyWlLk6GJQsqaUBKTNV-1" source="9MOlDyLgkSEw8JPwN7AX-30" target="9MOlDyLgkSEw8JPwN7AX-34">
          <mxGeometry relative="1" as="geometry" />
        </mxCell>
        <mxCell id="9MOlDyLgkSEw8JPwN7AX-30" value="head" style="rounded=0;whiteSpace=wrap;html=1;" vertex="1" parent="WIyWlLk6GJQsqaUBKTNV-1">
          <mxGeometry x="560" y="200" width="40" height="40" as="geometry" />
        </mxCell>
        <mxCell id="9MOlDyLgkSEw8JPwN7AX-98" style="edgeStyle=orthogonalEdgeStyle;rounded=0;orthogonalLoop=1;jettySize=auto;html=1;exitX=1;exitY=0.5;exitDx=0;exitDy=0;" edge="1" parent="WIyWlLk6GJQsqaUBKTNV-1" source="9MOlDyLgkSEw8JPwN7AX-31" target="9MOlDyLgkSEw8JPwN7AX-60">
          <mxGeometry relative="1" as="geometry" />
        </mxCell>
        <mxCell id="9MOlDyLgkSEw8JPwN7AX-31" value="init" style="text;html=1;align=center;verticalAlign=middle;whiteSpace=wrap;rounded=0;" vertex="1" parent="WIyWlLk6GJQsqaUBKTNV-1">
          <mxGeometry x="560" y="80" width="40" height="30" as="geometry" />
        </mxCell>
        <mxCell id="9MOlDyLgkSEw8JPwN7AX-50" style="edgeStyle=orthogonalEdgeStyle;rounded=0;orthogonalLoop=1;jettySize=auto;html=1;exitX=0.5;exitY=0;exitDx=0;exitDy=0;entryX=0.5;entryY=1;entryDx=0;entryDy=0;" edge="1" parent="WIyWlLk6GJQsqaUBKTNV-1" source="9MOlDyLgkSEw8JPwN7AX-34" target="9MOlDyLgkSEw8JPwN7AX-30">
          <mxGeometry relative="1" as="geometry" />
        </mxCell>
        <mxCell id="9MOlDyLgkSEw8JPwN7AX-51" style="edgeStyle=orthogonalEdgeStyle;rounded=0;orthogonalLoop=1;jettySize=auto;html=1;" edge="1" parent="WIyWlLk6GJQsqaUBKTNV-1" source="9MOlDyLgkSEw8JPwN7AX-34">
          <mxGeometry relative="1" as="geometry">
            <mxPoint x="580" y="360.0000000000001" as="targetPoint" />
          </mxGeometry>
        </mxCell>
        <mxCell id="9MOlDyLgkSEw8JPwN7AX-34" value="tail" style="rounded=0;whiteSpace=wrap;html=1;" vertex="1" parent="WIyWlLk6GJQsqaUBKTNV-1">
          <mxGeometry x="560" y="280" width="40" height="40" as="geometry" />
        </mxCell>
        <mxCell id="9MOlDyLgkSEw8JPwN7AX-52" style="edgeStyle=orthogonalEdgeStyle;rounded=0;orthogonalLoop=1;jettySize=auto;html=1;exitX=0.5;exitY=0;exitDx=0;exitDy=0;" edge="1" parent="WIyWlLk6GJQsqaUBKTNV-1" target="9MOlDyLgkSEw8JPwN7AX-34">
          <mxGeometry relative="1" as="geometry">
            <mxPoint x="580" y="360.0000000000001" as="sourcePoint" />
          </mxGeometry>
        </mxCell>
        <mxCell id="9MOlDyLgkSEw8JPwN7AX-57" style="edgeStyle=orthogonalEdgeStyle;rounded=0;orthogonalLoop=1;jettySize=auto;html=1;exitX=0.5;exitY=0;exitDx=0;exitDy=0;entryX=0.5;entryY=1;entryDx=0;entryDy=0;startArrow=classic;startFill=1;" edge="1" parent="WIyWlLk6GJQsqaUBKTNV-1" source="9MOlDyLgkSEw8JPwN7AX-59">
          <mxGeometry relative="1" as="geometry">
            <mxPoint x="660" y="160" as="targetPoint" />
          </mxGeometry>
        </mxCell>
        <mxCell id="9MOlDyLgkSEw8JPwN7AX-58" style="edgeStyle=orthogonalEdgeStyle;rounded=0;orthogonalLoop=1;jettySize=auto;html=1;exitX=0.5;exitY=1;exitDx=0;exitDy=0;" edge="1" parent="WIyWlLk6GJQsqaUBKTNV-1" source="9MOlDyLgkSEw8JPwN7AX-70" target="9MOlDyLgkSEw8JPwN7AX-63">
          <mxGeometry relative="1" as="geometry" />
        </mxCell>
        <mxCell id="9MOlDyLgkSEw8JPwN7AX-97" style="edgeStyle=orthogonalEdgeStyle;rounded=0;orthogonalLoop=1;jettySize=auto;html=1;exitX=0.5;exitY=1;exitDx=0;exitDy=0;entryX=0.5;entryY=0;entryDx=0;entryDy=0;" edge="1" parent="WIyWlLk6GJQsqaUBKTNV-1" source="9MOlDyLgkSEw8JPwN7AX-59" target="9MOlDyLgkSEw8JPwN7AX-67">
          <mxGeometry relative="1" as="geometry" />
        </mxCell>
        <mxCell id="9MOlDyLgkSEw8JPwN7AX-59" value="head" style="rounded=0;whiteSpace=wrap;html=1;" vertex="1" parent="WIyWlLk6GJQsqaUBKTNV-1">
          <mxGeometry x="640" y="200" width="40" height="40" as="geometry" />
        </mxCell>
        <mxCell id="9MOlDyLgkSEw8JPwN7AX-99" style="edgeStyle=orthogonalEdgeStyle;rounded=0;orthogonalLoop=1;jettySize=auto;html=1;exitX=1;exitY=0.5;exitDx=0;exitDy=0;entryX=0;entryY=0.5;entryDx=0;entryDy=0;" edge="1" parent="WIyWlLk6GJQsqaUBKTNV-1" source="9MOlDyLgkSEw8JPwN7AX-60" target="9MOlDyLgkSEw8JPwN7AX-80">
          <mxGeometry relative="1" as="geometry" />
        </mxCell>
        <mxCell id="9MOlDyLgkSEw8JPwN7AX-60" value="all" style="text;html=1;align=center;verticalAlign=middle;whiteSpace=wrap;rounded=0;" vertex="1" parent="WIyWlLk6GJQsqaUBKTNV-1">
          <mxGeometry x="640" y="80" width="40" height="30" as="geometry" />
        </mxCell>
        <mxCell id="9MOlDyLgkSEw8JPwN7AX-61" style="edgeStyle=orthogonalEdgeStyle;rounded=0;orthogonalLoop=1;jettySize=auto;html=1;exitX=0.5;exitY=0;exitDx=0;exitDy=0;entryX=0.5;entryY=1;entryDx=0;entryDy=0;" edge="1" parent="WIyWlLk6GJQsqaUBKTNV-1" source="9MOlDyLgkSEw8JPwN7AX-67" target="9MOlDyLgkSEw8JPwN7AX-59">
          <mxGeometry relative="1" as="geometry" />
        </mxCell>
        <mxCell id="9MOlDyLgkSEw8JPwN7AX-62" style="edgeStyle=orthogonalEdgeStyle;rounded=0;orthogonalLoop=1;jettySize=auto;html=1;" edge="1" parent="WIyWlLk6GJQsqaUBKTNV-1" source="9MOlDyLgkSEw8JPwN7AX-63">
          <mxGeometry relative="1" as="geometry">
            <mxPoint x="660" y="600" as="targetPoint" />
          </mxGeometry>
        </mxCell>
        <mxCell id="9MOlDyLgkSEw8JPwN7AX-63" value="tail" style="rounded=0;whiteSpace=wrap;html=1;" vertex="1" parent="WIyWlLk6GJQsqaUBKTNV-1">
          <mxGeometry x="640" y="520" width="40" height="40" as="geometry" />
        </mxCell>
        <mxCell id="9MOlDyLgkSEw8JPwN7AX-65" style="edgeStyle=orthogonalEdgeStyle;rounded=0;orthogonalLoop=1;jettySize=auto;html=1;exitX=0.5;exitY=0;exitDx=0;exitDy=0;" edge="1" parent="WIyWlLk6GJQsqaUBKTNV-1" target="9MOlDyLgkSEw8JPwN7AX-63">
          <mxGeometry relative="1" as="geometry">
            <mxPoint x="660" y="600" as="sourcePoint" />
          </mxGeometry>
        </mxCell>
        <mxCell id="9MOlDyLgkSEw8JPwN7AX-68" value="" style="edgeStyle=orthogonalEdgeStyle;rounded=0;orthogonalLoop=1;jettySize=auto;html=1;exitX=0.5;exitY=0;exitDx=0;exitDy=0;" edge="1" parent="WIyWlLk6GJQsqaUBKTNV-1" source="9MOlDyLgkSEw8JPwN7AX-70" target="9MOlDyLgkSEw8JPwN7AX-69">
          <mxGeometry relative="1" as="geometry">
            <mxPoint x="660" y="520" as="sourcePoint" />
            <mxPoint x="660" y="240" as="targetPoint" />
          </mxGeometry>
        </mxCell>
        <mxCell id="9MOlDyLgkSEw8JPwN7AX-94" style="edgeStyle=orthogonalEdgeStyle;rounded=0;orthogonalLoop=1;jettySize=auto;html=1;" edge="1" parent="WIyWlLk6GJQsqaUBKTNV-1" source="9MOlDyLgkSEw8JPwN7AX-67" target="9MOlDyLgkSEw8JPwN7AX-69">
          <mxGeometry relative="1" as="geometry" />
        </mxCell>
        <mxCell id="9MOlDyLgkSEw8JPwN7AX-67" value="Main" style="rounded=0;whiteSpace=wrap;html=1;" vertex="1" parent="WIyWlLk6GJQsqaUBKTNV-1">
          <mxGeometry x="640" y="280" width="40" height="40" as="geometry" />
        </mxCell>
        <mxCell id="9MOlDyLgkSEw8JPwN7AX-95" style="edgeStyle=orthogonalEdgeStyle;rounded=0;orthogonalLoop=1;jettySize=auto;html=1;exitX=0.5;exitY=0;exitDx=0;exitDy=0;" edge="1" parent="WIyWlLk6GJQsqaUBKTNV-1" source="9MOlDyLgkSEw8JPwN7AX-69" target="9MOlDyLgkSEw8JPwN7AX-67">
          <mxGeometry relative="1" as="geometry" />
        </mxCell>
        <mxCell id="9MOlDyLgkSEw8JPwN7AX-96" style="edgeStyle=orthogonalEdgeStyle;rounded=0;orthogonalLoop=1;jettySize=auto;html=1;exitX=0.5;exitY=1;exitDx=0;exitDy=0;" edge="1" parent="WIyWlLk6GJQsqaUBKTNV-1" source="9MOlDyLgkSEw8JPwN7AX-69" target="9MOlDyLgkSEw8JPwN7AX-70">
          <mxGeometry relative="1" as="geometry" />
        </mxCell>
        <mxCell id="9MOlDyLgkSEw8JPwN7AX-69" value="A" style="rounded=0;whiteSpace=wrap;html=1;" vertex="1" parent="WIyWlLk6GJQsqaUBKTNV-1">
          <mxGeometry x="640" y="360" width="40" height="40" as="geometry" />
        </mxCell>
        <mxCell id="9MOlDyLgkSEw8JPwN7AX-71" value="" style="edgeStyle=orthogonalEdgeStyle;rounded=0;orthogonalLoop=1;jettySize=auto;html=1;exitX=0.5;exitY=0;exitDx=0;exitDy=0;entryX=0.5;entryY=1;entryDx=0;entryDy=0;" edge="1" parent="WIyWlLk6GJQsqaUBKTNV-1" source="9MOlDyLgkSEw8JPwN7AX-63" target="9MOlDyLgkSEw8JPwN7AX-70">
          <mxGeometry relative="1" as="geometry">
            <mxPoint x="660" y="520" as="sourcePoint" />
            <mxPoint x="660" y="320" as="targetPoint" />
          </mxGeometry>
        </mxCell>
        <mxCell id="9MOlDyLgkSEw8JPwN7AX-70" value="B" style="rounded=0;whiteSpace=wrap;html=1;" vertex="1" parent="WIyWlLk6GJQsqaUBKTNV-1">
          <mxGeometry x="640" y="440" width="40" height="40" as="geometry" />
        </mxCell>
        <mxCell id="9MOlDyLgkSEw8JPwN7AX-73" value="null" style="ellipse;whiteSpace=wrap;html=1;aspect=fixed;" vertex="1" parent="WIyWlLk6GJQsqaUBKTNV-1">
          <mxGeometry x="560" y="360" width="40" height="40" as="geometry" />
        </mxCell>
        <mxCell id="9MOlDyLgkSEw8JPwN7AX-74" value="null" style="ellipse;whiteSpace=wrap;html=1;aspect=fixed;" vertex="1" parent="WIyWlLk6GJQsqaUBKTNV-1">
          <mxGeometry x="560" y="120" width="40" height="40" as="geometry" />
        </mxCell>
        <mxCell id="9MOlDyLgkSEw8JPwN7AX-75" value="null" style="ellipse;whiteSpace=wrap;html=1;aspect=fixed;" vertex="1" parent="WIyWlLk6GJQsqaUBKTNV-1">
          <mxGeometry x="640" y="120" width="40" height="40" as="geometry" />
        </mxCell>
        <mxCell id="9MOlDyLgkSEw8JPwN7AX-76" value="null" style="ellipse;whiteSpace=wrap;html=1;aspect=fixed;" vertex="1" parent="WIyWlLk6GJQsqaUBKTNV-1">
          <mxGeometry x="640" y="600" width="40" height="40" as="geometry" />
        </mxCell>
        <mxCell id="9MOlDyLgkSEw8JPwN7AX-77" style="edgeStyle=orthogonalEdgeStyle;rounded=0;orthogonalLoop=1;jettySize=auto;html=1;exitX=0.5;exitY=0;exitDx=0;exitDy=0;entryX=0.5;entryY=1;entryDx=0;entryDy=0;startArrow=classic;startFill=1;" edge="1" parent="WIyWlLk6GJQsqaUBKTNV-1" source="9MOlDyLgkSEw8JPwN7AX-79">
          <mxGeometry relative="1" as="geometry">
            <mxPoint x="740" y="160" as="targetPoint" />
          </mxGeometry>
        </mxCell>
        <mxCell id="9MOlDyLgkSEw8JPwN7AX-78" style="edgeStyle=orthogonalEdgeStyle;rounded=0;orthogonalLoop=1;jettySize=auto;html=1;exitX=0.5;exitY=1;exitDx=0;exitDy=0;" edge="1" parent="WIyWlLk6GJQsqaUBKTNV-1" source="9MOlDyLgkSEw8JPwN7AX-79" target="9MOlDyLgkSEw8JPwN7AX-83">
          <mxGeometry relative="1" as="geometry" />
        </mxCell>
        <mxCell id="9MOlDyLgkSEw8JPwN7AX-92" style="edgeStyle=orthogonalEdgeStyle;rounded=0;orthogonalLoop=1;jettySize=auto;html=1;exitX=0.5;exitY=1;exitDx=0;exitDy=0;" edge="1" parent="WIyWlLk6GJQsqaUBKTNV-1" source="9MOlDyLgkSEw8JPwN7AX-79">
          <mxGeometry relative="1" as="geometry">
            <mxPoint x="740.1428571428573" y="280" as="targetPoint" />
          </mxGeometry>
        </mxCell>
        <mxCell id="9MOlDyLgkSEw8JPwN7AX-79" value="head" style="rounded=0;whiteSpace=wrap;html=1;" vertex="1" parent="WIyWlLk6GJQsqaUBKTNV-1">
          <mxGeometry x="720" y="200" width="40" height="40" as="geometry" />
        </mxCell>
        <mxCell id="9MOlDyLgkSEw8JPwN7AX-80" value="ready" style="text;html=1;align=center;verticalAlign=middle;whiteSpace=wrap;rounded=0;" vertex="1" parent="WIyWlLk6GJQsqaUBKTNV-1">
          <mxGeometry x="720" y="80" width="40" height="30" as="geometry" />
        </mxCell>
        <mxCell id="9MOlDyLgkSEw8JPwN7AX-81" style="edgeStyle=orthogonalEdgeStyle;rounded=0;orthogonalLoop=1;jettySize=auto;html=1;exitX=0.5;exitY=0;exitDx=0;exitDy=0;entryX=0.5;entryY=1;entryDx=0;entryDy=0;" edge="1" parent="WIyWlLk6GJQsqaUBKTNV-1" target="9MOlDyLgkSEw8JPwN7AX-79">
          <mxGeometry relative="1" as="geometry">
            <mxPoint x="740" y="280" as="sourcePoint" />
          </mxGeometry>
        </mxCell>
        <mxCell id="9MOlDyLgkSEw8JPwN7AX-82" style="edgeStyle=orthogonalEdgeStyle;rounded=0;orthogonalLoop=1;jettySize=auto;html=1;" edge="1" parent="WIyWlLk6GJQsqaUBKTNV-1" source="9MOlDyLgkSEw8JPwN7AX-83">
          <mxGeometry relative="1" as="geometry">
            <mxPoint x="740" y="520" as="targetPoint" />
          </mxGeometry>
        </mxCell>
        <mxCell id="9MOlDyLgkSEw8JPwN7AX-83" value="tail" style="rounded=0;whiteSpace=wrap;html=1;" vertex="1" parent="WIyWlLk6GJQsqaUBKTNV-1">
          <mxGeometry x="720" y="440" width="40" height="40" as="geometry" />
        </mxCell>
        <mxCell id="9MOlDyLgkSEw8JPwN7AX-84" style="edgeStyle=orthogonalEdgeStyle;rounded=0;orthogonalLoop=1;jettySize=auto;html=1;exitX=0.5;exitY=0;exitDx=0;exitDy=0;" edge="1" parent="WIyWlLk6GJQsqaUBKTNV-1" target="9MOlDyLgkSEw8JPwN7AX-83">
          <mxGeometry relative="1" as="geometry">
            <mxPoint x="740" y="520" as="sourcePoint" />
          </mxGeometry>
        </mxCell>
        <mxCell id="9MOlDyLgkSEw8JPwN7AX-85" value="" style="edgeStyle=orthogonalEdgeStyle;rounded=0;orthogonalLoop=1;jettySize=auto;html=1;exitX=0.5;exitY=0;exitDx=0;exitDy=0;entryX=0.5;entryY=1;entryDx=0;entryDy=0;" edge="1" parent="WIyWlLk6GJQsqaUBKTNV-1" source="9MOlDyLgkSEw8JPwN7AX-89">
          <mxGeometry relative="1" as="geometry">
            <mxPoint x="740" y="520" as="sourcePoint" />
            <mxPoint x="740" y="320" as="targetPoint" />
          </mxGeometry>
        </mxCell>
        <mxCell id="9MOlDyLgkSEw8JPwN7AX-93" style="edgeStyle=orthogonalEdgeStyle;rounded=0;orthogonalLoop=1;jettySize=auto;html=1;exitX=0.5;exitY=1;exitDx=0;exitDy=0;" edge="1" parent="WIyWlLk6GJQsqaUBKTNV-1" source="9MOlDyLgkSEw8JPwN7AX-87">
          <mxGeometry relative="1" as="geometry">
            <mxPoint x="740.1428571428573" y="360.0000000000001" as="targetPoint" />
          </mxGeometry>
        </mxCell>
        <mxCell id="9MOlDyLgkSEw8JPwN7AX-87" value="A" style="rounded=0;whiteSpace=wrap;html=1;" vertex="1" parent="WIyWlLk6GJQsqaUBKTNV-1">
          <mxGeometry x="720" y="280" width="40" height="40" as="geometry" />
        </mxCell>
        <mxCell id="9MOlDyLgkSEw8JPwN7AX-88" value="" style="edgeStyle=orthogonalEdgeStyle;rounded=0;orthogonalLoop=1;jettySize=auto;html=1;exitX=0.5;exitY=0;exitDx=0;exitDy=0;entryX=0.5;entryY=1;entryDx=0;entryDy=0;" edge="1" parent="WIyWlLk6GJQsqaUBKTNV-1" source="9MOlDyLgkSEw8JPwN7AX-83" target="9MOlDyLgkSEw8JPwN7AX-89">
          <mxGeometry relative="1" as="geometry">
            <mxPoint x="740" y="440" as="sourcePoint" />
            <mxPoint x="740" y="240" as="targetPoint" />
          </mxGeometry>
        </mxCell>
        <mxCell id="9MOlDyLgkSEw8JPwN7AX-89" value="B" style="rounded=0;whiteSpace=wrap;html=1;" vertex="1" parent="WIyWlLk6GJQsqaUBKTNV-1">
          <mxGeometry x="720" y="360" width="40" height="40" as="geometry" />
        </mxCell>
        <mxCell id="9MOlDyLgkSEw8JPwN7AX-90" value="null" style="ellipse;whiteSpace=wrap;html=1;aspect=fixed;" vertex="1" parent="WIyWlLk6GJQsqaUBKTNV-1">
          <mxGeometry x="720" y="120" width="40" height="40" as="geometry" />
        </mxCell>
        <mxCell id="9MOlDyLgkSEw8JPwN7AX-91" value="null" style="ellipse;whiteSpace=wrap;html=1;aspect=fixed;" vertex="1" parent="WIyWlLk6GJQsqaUBKTNV-1">
          <mxGeometry x="720" y="520" width="40" height="40" as="geometry" />
        </mxCell>
        <mxCell id="9MOlDyLgkSEw8JPwN7AX-105" style="edgeStyle=orthogonalEdgeStyle;rounded=0;orthogonalLoop=1;jettySize=auto;html=1;entryX=1;entryY=0.5;entryDx=0;entryDy=0;" edge="1" parent="WIyWlLk6GJQsqaUBKTNV-1" source="9MOlDyLgkSEw8JPwN7AX-102" target="9MOlDyLgkSEw8JPwN7AX-103">
          <mxGeometry relative="1" as="geometry">
            <Array as="points">
              <mxPoint x="440" y="740" />
              <mxPoint x="440" y="660" />
            </Array>
          </mxGeometry>
        </mxCell>
        <mxCell id="9MOlDyLgkSEw8JPwN7AX-110" style="edgeStyle=orthogonalEdgeStyle;rounded=0;orthogonalLoop=1;jettySize=auto;html=1;exitX=0.5;exitY=1;exitDx=0;exitDy=0;" edge="1" parent="WIyWlLk6GJQsqaUBKTNV-1" source="9MOlDyLgkSEw8JPwN7AX-102">
          <mxGeometry relative="1" as="geometry">
            <mxPoint x="299.7142857142858" y="800" as="targetPoint" />
          </mxGeometry>
        </mxCell>
        <mxCell id="9MOlDyLgkSEw8JPwN7AX-102" value="Intr timer == 0" style="rhombus;whiteSpace=wrap;html=1;" vertex="1" parent="WIyWlLk6GJQsqaUBKTNV-1">
          <mxGeometry x="220" y="720" width="160" height="40" as="geometry" />
        </mxCell>
        <mxCell id="9MOlDyLgkSEw8JPwN7AX-104" style="edgeStyle=orthogonalEdgeStyle;rounded=0;orthogonalLoop=1;jettySize=auto;html=1;entryX=0.5;entryY=0;entryDx=0;entryDy=0;" edge="1" parent="WIyWlLk6GJQsqaUBKTNV-1" source="9MOlDyLgkSEw8JPwN7AX-103" target="9MOlDyLgkSEw8JPwN7AX-102">
          <mxGeometry relative="1" as="geometry" />
        </mxCell>
        <mxCell id="9MOlDyLgkSEw8JPwN7AX-103" value="Print Thread Message" style="rounded=1;whiteSpace=wrap;html=1;" vertex="1" parent="WIyWlLk6GJQsqaUBKTNV-1">
          <mxGeometry x="220" y="640" width="160" height="40" as="geometry" />
        </mxCell>
        <mxCell id="9MOlDyLgkSEw8JPwN7AX-106" value="False" style="text;html=1;align=center;verticalAlign=middle;whiteSpace=wrap;rounded=0;" vertex="1" parent="WIyWlLk6GJQsqaUBKTNV-1">
          <mxGeometry x="380" y="710" width="50" height="30" as="geometry" />
        </mxCell>
        <mxCell id="9MOlDyLgkSEw8JPwN7AX-111" value="True" style="text;html=1;align=center;verticalAlign=middle;whiteSpace=wrap;rounded=0;" vertex="1" parent="WIyWlLk6GJQsqaUBKTNV-1">
          <mxGeometry x="300" y="760" width="40" height="30" as="geometry" />
        </mxCell>
        <mxCell id="9MOlDyLgkSEw8JPwN7AX-118" style="edgeStyle=orthogonalEdgeStyle;rounded=0;orthogonalLoop=1;jettySize=auto;html=1;entryX=0.5;entryY=0;entryDx=0;entryDy=0;" edge="1" parent="WIyWlLk6GJQsqaUBKTNV-1" source="9MOlDyLgkSEw8JPwN7AX-112" target="9MOlDyLgkSEw8JPwN7AX-117">
          <mxGeometry relative="1" as="geometry" />
        </mxCell>
        <mxCell id="9MOlDyLgkSEw8JPwN7AX-112" value="Insert Thread to tail" style="rounded=1;whiteSpace=wrap;html=1;" vertex="1" parent="WIyWlLk6GJQsqaUBKTNV-1">
          <mxGeometry x="240" y="800" width="120" height="40" as="geometry" />
        </mxCell>
        <mxCell id="9MOlDyLgkSEw8JPwN7AX-121" style="edgeStyle=orthogonalEdgeStyle;rounded=0;orthogonalLoop=1;jettySize=auto;html=1;entryX=0.5;entryY=0;entryDx=0;entryDy=0;" edge="1" parent="WIyWlLk6GJQsqaUBKTNV-1" source="9MOlDyLgkSEw8JPwN7AX-117" target="9MOlDyLgkSEw8JPwN7AX-120">
          <mxGeometry relative="1" as="geometry" />
        </mxCell>
        <mxCell id="9MOlDyLgkSEw8JPwN7AX-117" value="Get a thread from head." style="rounded=1;whiteSpace=wrap;html=1;" vertex="1" parent="WIyWlLk6GJQsqaUBKTNV-1">
          <mxGeometry x="220" y="880" width="160" height="40" as="geometry" />
        </mxCell>
        <mxCell id="9MOlDyLgkSEw8JPwN7AX-122" style="edgeStyle=orthogonalEdgeStyle;rounded=0;orthogonalLoop=1;jettySize=auto;html=1;exitX=0;exitY=0.5;exitDx=0;exitDy=0;" edge="1" parent="WIyWlLk6GJQsqaUBKTNV-1" source="9MOlDyLgkSEw8JPwN7AX-120">
          <mxGeometry relative="1" as="geometry">
            <mxPoint x="300" y="540" as="targetPoint" />
            <Array as="points">
              <mxPoint x="60" y="990" />
              <mxPoint x="60" y="540" />
            </Array>
          </mxGeometry>
        </mxCell>
        <mxCell id="9MOlDyLgkSEw8JPwN7AX-120" value="Push context of interrupt handler to stack&lt;div&gt;Load thread (pop and jump to target PCB addr)&lt;br&gt;&lt;div&gt;switch_to(*thread, next)&lt;/div&gt;&lt;/div&gt;" style="rounded=1;whiteSpace=wrap;html=1;" vertex="1" parent="WIyWlLk6GJQsqaUBKTNV-1">
          <mxGeometry x="160" y="960" width="280" height="60" as="geometry" />
        </mxCell>
      </root>
    </mxGraphModel>
  </diagram>
</mxfile>
